<svg width="316" height="293" viewBox="0 0 316 293" fill="none" xmlns="http://www.w3.org/2000/svg">
<path fill-rule="evenodd" clip-rule="evenodd" d="M107.407 3.17884C134.117 7.23874 156.126 25.2999 177.478 41.8539C196.206 56.3738 210.227 75.0616 224.511 93.97C238.506 112.495 257.449 129.362 260.928 152.317C264.386 175.135 242.719 195.321 243.367 218.39C244.292 251.302 278.663 283.235 265.454 313.396C253.574 340.521 215.34 350.275 185.728 349.994C156.329 349.716 136.774 313.299 107.407 311.898C80.131 310.597 59.9007 341.988 32.6029 342.69C2.03851 343.475 -28.6364 333.173 -53.9631 316.046C-82.3161 296.872 -106.861 270.819 -120.252 239.319C-134.41 206.013 -161.09 154.116 -131.886 132.741C-87.1044 99.9637 -12.6055 159.992 32.4305 127.566C62.255 106.092 7.29565 50.3454 26.2677 18.8704C40.6693 -5.02204 79.8264 -1.01331 107.407 3.17884Z" fill="#FFC0CB" fill-opacity="0.3"/>
<path fill-rule="evenodd" clip-rule="evenodd" d="M154.407 5.17884C181.117 9.23874 203.126 27.2999 224.478 43.8539C243.206 58.3738 257.227 77.0616 271.511 95.97C285.506 114.495 304.449 131.362 307.928 154.317C311.386 177.135 289.719 197.321 290.367 220.39C291.292 253.302 325.663 285.235 312.454 315.396C300.574 342.521 262.34 352.275 232.728 351.994C203.329 351.716 183.774 315.299 154.407 313.898C127.131 312.597 106.901 343.988 79.6029 344.69C49.0385 345.475 18.3636 335.173 -6.96309 318.046C-35.3161 298.872 -59.8614 272.819 -73.2518 241.319C-87.4103 208.013 -114.09 156.116 -84.8857 134.741C-40.1044 101.964 34.3945 161.992 79.4305 129.566C109.255 108.092 54.2956 52.3454 73.2677 20.8704C87.6693 -3.02204 126.826 0.986694 154.407 5.17884Z" fill="#FFC0CB" fill-opacity="0.3"/>
</svg>
