<svg width="198" height="193" viewBox="0 0 198 193" fill="none" xmlns="http://www.w3.org/2000/svg">
<path fill-rule="evenodd" clip-rule="evenodd" d="M134.68 14.2809C159.268 10.2908 186.829 15.5005 205.809 31.6328C224.264 47.319 226.643 74.1037 232.664 97.5641C237.726 117.287 241.544 137.115 238.03 157.172C234.59 176.809 227.735 196.76 212.946 210.13C198.805 222.912 177.104 219.875 159.807 227.885C138.252 237.867 122.856 265.933 99.3163 262.75C76.4145 259.653 66.2853 232.051 52.6465 213.395C40.0971 196.228 22.5683 179.628 23.0081 158.368C23.4403 137.478 45.3773 124.478 54.8711 105.865C63.7952 88.3678 64.082 67.3458 76.9859 52.5382C92.4593 34.7819 111.432 18.0536 134.68 14.2809Z" fill="#0000FF" fill-opacity="0.1"/>
<path fill-rule="evenodd" clip-rule="evenodd" d="M111.68 1.28087C136.268 -2.70925 163.829 2.50053 182.809 18.6328C201.264 34.319 203.643 61.1037 209.664 84.5641C214.726 104.287 218.544 124.115 215.03 144.172C211.59 163.809 204.735 183.76 189.946 197.13C175.805 209.912 154.104 206.875 136.807 214.885C115.252 224.867 99.856 252.933 76.3163 249.75C53.4145 246.653 43.2853 219.051 29.6465 200.395C17.0971 183.228 -0.43171 166.628 0.00811696 145.368C0.440307 124.478 22.3773 111.478 31.8711 92.8646C40.7952 75.3678 41.082 54.3458 53.9859 39.5382C69.4593 21.7819 88.4318 5.05359 111.68 1.28087Z" fill="#0000FF" fill-opacity="0.1"/>
</svg>
