<svg width="223" height="204" viewBox="0 0 223 204" fill="none" xmlns="http://www.w3.org/2000/svg">
<path fill-rule="evenodd" clip-rule="evenodd" d="M69.4562 -50.7519C109.915 -54.1769 157.435 -86.9366 186.376 -58.4576C215.291 -30.0036 182.775 17.9618 180.44 58.4618C178.357 94.5759 198.805 136.659 173.626 162.631C148.377 188.674 105.138 179.46 69.4562 172.938C40.9636 167.73 21.4976 146.629 -2.51814 130.436C-37.4092 106.911 -93.8251 100.037 -100.329 58.4618C-106.843 16.8219 -64.6588 -17.4062 -29.2125 -40.2069C-0.293213 -58.8091 35.1932 -47.8514 69.4562 -50.7519Z" fill="#008000" fill-opacity="0.15"/>
<path fill-rule="evenodd" clip-rule="evenodd" d="M93.4562 -26.7519C133.915 -30.1769 181.435 -62.9366 210.376 -34.4576C239.291 -6.00361 206.775 41.9618 204.44 82.4618C202.357 118.576 222.805 160.659 197.626 186.631C172.377 212.674 129.138 203.46 93.4562 196.938C64.9636 191.73 45.4976 170.629 21.4819 154.436C-13.4092 130.911 -69.8251 124.037 -76.3289 82.4618C-82.8428 40.8219 -40.6588 6.59384 -5.21251 -16.2069C23.7068 -34.8091 59.1932 -23.8514 93.4562 -26.7519Z" fill="#008000" fill-opacity="0.15"/>
</svg>
