<svg width="45" height="45" viewBox="0 0 45 45" fill="none" xmlns="http://www.w3.org/2000/svg">
<path d="M13.6863 7.40773L11.7531 3.9543L11.3665 4.19156C10.3032 4.84182 9.29264 5.57996 8.37876 6.38839C6.1995 8.30404 4.4596 10.5887 3.19422 13.1898C1.8937 15.8699 1.18192 18.7522 1.07647 21.7399L1.0589 22.1968H21.9552L13.6863 7.40773Z" fill="#9B0045"/>
<path d="M19.9253 26.4587L21.9728 22.8032H1.06769L1.08526 23.2601C1.11162 23.8752 1.15556 24.5079 1.23465 25.1494C1.25222 25.2724 1.26101 25.3866 1.27858 25.5009C1.31373 25.7645 1.34888 26.0369 1.40161 26.3005C1.41039 26.3445 1.41918 26.3884 1.42797 26.4148C1.45433 26.5641 1.48069 26.7047 1.51584 26.8453L1.52463 26.9069C1.55099 27.0387 1.57735 27.1793 1.6125 27.3199L1.63887 27.4165C1.67401 27.5747 1.71795 27.7417 1.76189 27.9086C1.91127 28.4886 2.05187 28.9719 2.21004 29.4112C2.26277 29.5694 2.31549 29.7276 2.377 29.8858C2.4473 30.0703 2.52639 30.29 2.61426 30.5009C2.86909 31.1336 3.1415 31.7399 3.44027 32.3023C3.55451 32.522 3.65117 32.7153 3.74783 32.8822C3.85328 33.0668 3.95873 33.2425 4.07296 33.4446C4.19598 33.6467 4.30143 33.8225 4.40688 33.9807C4.5299 34.1652 4.65293 34.3673 4.78474 34.5518C4.84625 34.6397 4.90776 34.7364 4.97806 34.8243C5.01321 34.8858 5.05714 34.9473 5.10108 35C5.17138 35.0967 5.24168 35.1933 5.31198 35.29C5.54924 35.6239 5.82164 35.949 6.02375 36.1951L6.03254 36.2039C6.14677 36.3357 6.26101 36.4763 6.37525 36.6081C6.63887 36.9069 6.87612 37.1617 7.1046 37.3989C7.27155 37.5747 7.45609 37.768 7.69335 37.9877C7.71971 38.0141 7.74607 38.0404 7.77243 38.0668C7.99212 38.2777 8.19423 38.4622 8.39634 38.638C8.98509 39.1564 9.61778 39.6397 10.2593 40.0879C10.4086 40.1933 10.558 40.2988 10.6986 40.3866C10.9535 40.5536 11.1644 40.6942 11.3665 40.8172L11.7531 41.0545L13.37 38.1722L19.9253 26.4587Z" fill="#215EFF"/>
<path d="M20.3735 18.0492L22.5 21.8629L30.5844 7.43409L32.6933 3.65553L32.2891 3.44464C31.3049 2.94376 30.3032 2.51318 29.319 2.18805C29.3014 2.17926 29.2839 2.17926 29.2751 2.17047H29.2663L29.2223 2.14411L29.1784 2.13532H29.1696C29.152 2.12653 29.1345 2.11775 29.1081 2.11775C28.9236 2.05623 28.7303 2.00351 28.5457 1.942L28.4139 1.90685C28.1854 1.83655 27.9394 1.77504 27.623 1.69595L27.5703 1.67838H27.5527C27.3243 1.62565 27.087 1.56414 26.8498 1.51142C26.015 1.34446 25.2241 1.22144 24.4332 1.15993C24.2926 1.14235 24.152 1.12478 24.0027 1.12478C23.9324 1.12478 23.8621 1.11599 23.7918 1.1072C23.7039 1.09841 23.6248 1.09841 23.5369 1.08963H23.5194C23.493 1.08963 23.4578 1.08963 23.4227 1.08963C23.3788 1.08963 23.326 1.08963 23.2821 1.08963C23.0273 1.08084 22.7724 1.07205 22.5 1.07205C19.1081 1.07205 15.725 1.89806 12.7109 3.45342L12.3067 3.66432L14.2575 7.1529L20.3735 18.0492Z" fill="#083D31"/>
<path d="M23.036 22.188H43.9323L43.9147 21.7311C43.8884 21.116 43.8444 20.4833 43.7654 19.8418C43.7478 19.7188 43.739 19.6046 43.7214 19.4903C43.6863 19.2267 43.6511 18.9543 43.5984 18.6907C43.5896 18.6467 43.5808 18.6028 43.572 18.5764C43.5457 18.4358 43.5193 18.304 43.493 18.1722L43.4842 18.1459C43.3524 17.5132 43.2118 16.9332 43.0448 16.3884C43.0009 16.2214 42.9394 16.0457 42.8691 15.826C42.8427 15.7381 42.8163 15.6678 42.79 15.5887C42.7372 15.4306 42.6845 15.2724 42.623 15.1142C42.4824 14.7276 42.3418 14.3585 42.1749 13.9982C42.1485 13.9367 42.1221 13.8752 42.0958 13.8137C42.0255 13.6643 41.9552 13.5061 41.8849 13.348C41.7882 13.1283 41.674 12.9086 41.5597 12.6977C41.4455 12.478 41.3488 12.2935 41.2522 12.1177C41.1467 11.9332 41.0413 11.7487 40.927 11.5554C40.804 11.3532 40.6986 11.1775 40.5931 11.0105C40.4701 10.826 40.3471 10.6239 40.2153 10.4482C40.1186 10.3076 40.022 10.1582 39.9077 10.0176C39.6265 9.61335 39.319 9.20913 38.9763 8.80492C38.862 8.67311 38.7478 8.53251 38.6336 8.4007L38.6248 8.39191L38.616 8.38312L38.6072 8.37434C38.5896 8.35676 38.572 8.3304 38.5369 8.30404C38.326 8.05799 38.1239 7.83831 37.9218 7.6362L37.8866 7.60105C37.79 7.50439 37.6933 7.39894 37.5966 7.31107C37.4473 7.1529 37.2715 6.98594 37.0694 6.8014C36.92 6.6608 36.7531 6.51142 36.5949 6.37082L36.5861 6.36203C36.4894 6.28295 36.4016 6.20386 36.2961 6.11599C36.0589 5.92267 35.8128 5.72056 35.5668 5.51845L35.5404 5.50087L35.514 5.4833C35.4965 5.47451 35.4789 5.45694 35.4525 5.43936C35.4437 5.43058 35.4262 5.42179 35.4174 5.413C35.268 5.28998 35.1186 5.17574 34.9692 5.08787C34.8989 5.02636 34.8198 4.97363 34.732 4.92091C34.5914 4.81546 34.442 4.7188 34.3102 4.63093C34.0553 4.46397 33.8444 4.32337 33.6423 4.20035L33.2557 3.96309L31.1379 7.75922L23.036 22.188Z" fill="#24067F"/>
<path d="M23.036 22.8032L31.4367 37.8032L33.2469 41.0457L33.6336 40.8084C34.0817 40.5272 34.5123 40.246 34.9077 39.9561C35.0659 39.8418 35.2241 39.7276 35.3822 39.6046C35.558 39.4728 35.7425 39.3322 35.9446 39.1652C36.2698 38.9016 36.5334 38.6819 36.7706 38.471L36.7794 38.4622L36.7882 38.4534C36.8058 38.4359 36.8146 38.4271 36.8321 38.4095C36.8585 38.3919 36.8761 38.3656 36.9024 38.348C37.0958 38.1722 37.2891 37.9877 37.4824 37.8119L37.5 37.7944L37.5176 37.7768C37.5527 37.7329 37.5879 37.6977 37.6318 37.6626C37.8075 37.4868 38.0009 37.2935 38.1766 37.1002C38.9235 36.3005 39.6089 35.4394 40.2328 34.5167C40.3471 34.3497 40.4613 34.1828 40.5756 33.9982C40.8128 33.6204 41.0149 33.2953 41.1731 33.0053C41.2434 32.891 41.3049 32.768 41.3752 32.6362C41.7531 31.9596 42.087 31.239 42.3857 30.5009C42.5615 30.0791 42.7109 29.6661 42.8427 29.2531C42.9306 28.9982 42.9921 28.7961 43.0448 28.6204C43.2118 28.058 43.3436 27.5483 43.4402 27.0738C43.4842 26.8629 43.5281 26.652 43.572 26.4323C43.6072 26.2742 43.6248 26.1248 43.6511 25.9842C43.6863 25.8172 43.7039 25.6503 43.7302 25.4921L43.739 25.4394C43.7566 25.3076 43.7829 25.167 43.7917 25.0351C43.862 24.4552 43.906 23.8576 43.9323 23.2513L43.9499 22.7944H23.036V22.8032Z" fill="#A60916"/>
<path d="M17.6494 21.9244H4.62653C4.9253 17.1353 7.14849 12.8559 10.5316 9.87698L17.6494 21.9244Z" fill="#CC004E"/>
<path d="M30.9095 38.1459L24.442 26.6081L22.5 23.1371L13.9324 38.4534L12.3067 41.3533L12.7109 41.5642C13.4666 41.9508 14.2487 42.2935 15.022 42.5923C15.2944 42.6889 15.558 42.7856 15.8304 42.8735C16.0237 42.935 16.3225 43.0316 16.6213 43.1195C17.2188 43.2865 17.7549 43.4183 18.2557 43.5149C18.5194 43.5677 18.7918 43.6204 19.0642 43.6643C19.1081 43.6731 19.152 43.6819 19.196 43.6819C19.3014 43.6995 19.3981 43.7171 19.5123 43.7258C19.6441 43.7522 19.7759 43.761 19.9078 43.7786C20.1187 43.8049 20.3383 43.8313 20.558 43.8489C20.9007 43.884 21.2786 43.9104 21.7267 43.9279C21.9728 43.9367 22.2452 43.9455 22.5176 43.9455C25.9095 43.9455 29.2926 43.1195 32.3067 41.5642L32.7109 41.3533L30.9095 38.1459Z" fill="#F6981E"/>
<path d="M30.6986 38.0404C28.203 39.3937 25.3471 40.167 22.2979 40.167C20.6371 40.167 19.0202 39.9385 17.4912 39.4991L24.2311 26.4939L30.6986 38.0404Z" fill="#FDB50D"/>
<path d="M19.8638 26.2478L13.3172 37.9438C9.14321 35.413 6.11157 31.2039 5.16254 26.2478H19.8638V26.2478Z" fill="#0F7BE4"/>
<path d="M27.0519 6.18629L20.5932 18.0228L14.486 7.11775C16.7619 6.04569 19.2926 5.44815 21.9728 5.44815C23.739 5.44815 25.4526 5.71177 27.0519 6.18629Z" fill="#0D6758"/>
<path d="M39.0641 18.638H25.268L31.3137 7.84711C35.1362 10.2548 37.9745 14.1037 39.0641 18.638Z" fill="#2B339B"/>
<path d="M39.5299 23.0141C39.4332 28.0316 37.2276 32.5308 33.7741 35.6678L26.4807 23.0141H39.5299Z" fill="#C90006"/>
<path d="M22.5 0C10.1011 0 0.00439453 10.0967 0.00439453 22.4956C0.00439453 23.7698 0.109843 25.0264 0.329526 26.2478C1.70035 34.4552 7.55272 41.1687 15.268 43.7961C17.5439 44.5782 19.978 45 22.5 45C27.7548 45 32.5967 43.1898 36.4279 40.1494C41.6476 36.0193 44.9956 29.6397 44.9956 22.4956C44.9956 10.0967 34.8989 0 22.5 0ZM34.0554 4.98243C34.196 5.0703 34.3366 5.15817 34.4772 5.26362C34.5562 5.30756 34.6265 5.36028 34.6968 5.42179C34.8462 5.50967 34.9868 5.61511 35.1274 5.73814C35.1801 5.77329 35.2241 5.81722 35.2768 5.84359C35.5229 6.03691 35.7601 6.23023 35.9974 6.43234C36.1028 6.52021 36.1995 6.60808 36.2961 6.68717C36.4543 6.81898 36.6125 6.96837 36.7531 7.10018C36.9288 7.26714 37.1046 7.4341 37.2715 7.60105C37.3682 7.68893 37.4649 7.78559 37.5527 7.88225L37.5967 7.92619C37.8076 8.14587 38.0185 8.37434 38.2118 8.60281C38.2381 8.62917 38.2645 8.65554 38.2909 8.6819C38.4051 8.81371 38.5193 8.94552 38.6248 9.07733C38.9499 9.46397 39.2575 9.8594 39.5387 10.2724C39.6529 10.4042 39.7496 10.5536 39.8374 10.6942C39.9692 10.8699 40.0835 11.0633 40.2065 11.2478C40.3295 11.4236 40.435 11.5905 40.5316 11.775C40.6459 11.9596 40.7513 12.1441 40.8568 12.3286C40.971 12.5132 41.0677 12.7065 41.1555 12.8998C41.2698 13.1019 41.3752 13.3128 41.4719 13.5325C41.5773 13.7434 41.6652 13.9631 41.7619 14.174C41.92 14.5343 42.0606 14.8946 42.1924 15.2724C42.254 15.4306 42.3155 15.58 42.3594 15.7381C42.3858 15.8172 42.4121 15.8787 42.4385 15.9578C42.5 16.1336 42.5615 16.3269 42.6142 16.5114C42.79 17.0738 42.9306 17.6538 43.0448 18.2337C43.0712 18.3831 43.1063 18.5325 43.1327 18.6907C43.1415 18.717 43.1503 18.7346 43.1503 18.761C43.203 19.0246 43.2381 19.297 43.2821 19.5606C43.2997 19.6749 43.3084 19.7891 43.326 19.9033C43.4051 20.5097 43.4578 21.1336 43.4754 21.7575H23.783L25.4613 18.761L31.507 7.97012L33.4051 4.56942C33.6248 4.69244 33.8445 4.83304 34.0554 4.98243ZM22.5 1.50264C22.7636 1.50264 23.0185 1.51142 23.2733 1.52021C23.3524 1.52021 23.4402 1.529 23.5105 1.529C23.6687 1.53779 23.8269 1.55536 23.9763 1.55536C24.1169 1.56415 24.2575 1.58172 24.3893 1.59051C25.1977 1.66081 25.9886 1.77504 26.7619 1.93322C27.0079 1.98594 27.254 2.04745 27.5 2.10896C27.5088 2.10896 27.5088 2.10896 27.5176 2.10896C27.7812 2.17926 28.036 2.24077 28.2997 2.31986C28.5281 2.39016 28.7566 2.45167 28.9851 2.53076C29.0114 2.53954 29.0466 2.55712 29.0817 2.55712H29.0905C29.1169 2.57469 29.1432 2.58348 29.1784 2.59227C30.1801 2.92619 31.1555 3.34798 32.0958 3.83128L30.2065 7.21441L22.5 20.9578L20.7513 17.8295L14.6441 6.92443L12.913 3.83128C15.7777 2.34622 19.0466 1.50264 22.5 1.50264ZM8.66872 6.71353C9.57381 5.91388 10.558 5.19332 11.5949 4.56063L13.3084 7.61863L21.217 21.7487H1.52461C1.7355 15.7645 4.45958 10.4042 8.66872 6.71353ZM10.9446 40.0088C10.804 39.9209 10.6634 39.833 10.5228 39.7276C9.88137 39.2882 9.27504 38.8137 8.69508 38.304C8.46661 38.1107 8.2645 37.9174 8.0536 37.7153C8.04482 37.7153 8.04482 37.7153 8.04482 37.7065C7.83392 37.5132 7.62302 37.3111 7.4297 37.1002C7.18366 36.8453 6.9464 36.5817 6.70914 36.3181C6.5949 36.1863 6.48067 36.0545 6.37522 35.9227C6.13796 35.6327 5.89192 35.3339 5.68102 35.0264C5.60193 34.9297 5.53164 34.8243 5.45255 34.7188C5.4174 34.6837 5.38225 34.6397 5.36468 34.587C5.28559 34.4903 5.22408 34.4025 5.16257 34.3058C5.03076 34.1301 4.91652 33.9367 4.7935 33.7522C4.67048 33.5765 4.56503 33.4095 4.46837 33.225C4.35413 33.0404 4.24868 32.8559 4.14323 32.6714C4.029 32.4868 3.93234 32.2935 3.84447 32.1002C3.5457 31.5202 3.27329 30.9402 3.03603 30.3339C2.95694 30.1406 2.87786 29.9385 2.80756 29.7276C2.74605 29.5694 2.68454 29.42 2.6406 29.2619C2.46485 28.7786 2.32425 28.2865 2.20123 27.7944C2.14851 27.6098 2.10457 27.4165 2.06063 27.2232C2.02548 27.0738 1.99033 26.9156 1.96397 26.7663C1.93761 26.6169 1.90246 26.4675 1.8761 26.3093C1.86731 26.283 1.85852 26.2654 1.85852 26.239C1.8058 25.9754 1.77065 25.703 1.72671 25.4394C1.70914 25.3251 1.70035 25.2109 1.68278 25.0967C1.60369 24.4903 1.55097 23.8664 1.53339 23.2425H21.2258L19.5475 26.239L13.0009 37.935L11.6037 40.4218C11.3752 40.2988 11.1555 40.1582 10.9446 40.0088ZM22.5 43.4886C22.2364 43.4886 21.9728 43.4798 21.7179 43.471C21.3313 43.4534 20.9534 43.4359 20.5756 43.3919C20.3647 43.3743 20.1538 43.3568 19.9429 43.3216C19.8111 43.304 19.6793 43.2953 19.5562 43.2689C19.4156 43.2513 19.2663 43.225 19.1257 43.1986C18.862 43.1634 18.5984 43.1107 18.3348 43.058C17.7988 42.9526 17.2627 42.8207 16.7355 42.6714C16.4719 42.5923 16.2083 42.5132 15.9534 42.4341C15.6898 42.3462 15.4262 42.2584 15.1626 42.1529C14.3893 41.8629 13.6336 41.5202 12.8954 41.1511L14.3014 38.6555L22.5 24.0334L24.0554 26.819L30.5229 38.3568L32.087 41.1511C29.2223 42.645 25.9534 43.4886 22.5 43.4886ZM43.3348 24.9912C43.3172 25.1406 43.2997 25.2812 43.2733 25.4306C43.2469 25.5975 43.2294 25.7645 43.1942 25.9139C43.1678 26.0633 43.1503 26.2039 43.1151 26.3445C43.08 26.5554 43.036 26.7663 42.9833 26.9772C42.8779 27.4868 42.746 27.9877 42.5967 28.4886C42.5439 28.6995 42.4736 28.9016 42.4033 29.1125C42.2715 29.5343 42.1221 29.9385 41.9552 30.3339C41.674 31.0545 41.3401 31.7575 40.9622 32.4341C40.9007 32.5571 40.8304 32.6714 40.7689 32.7944C40.5932 33.1283 40.3823 33.4534 40.1801 33.7698C40.0747 33.9455 39.9692 34.1037 39.8462 34.2707C39.2399 35.167 38.5633 36.0105 37.8251 36.8014C37.6494 36.9859 37.4736 37.1705 37.2891 37.3462C37.2452 37.3902 37.2012 37.4341 37.1573 37.4868C36.9728 37.6626 36.7707 37.8471 36.5773 38.0228C36.5422 38.058 36.4982 38.1019 36.4543 38.1371C36.1907 38.3656 35.9183 38.594 35.6459 38.8225C35.4701 38.9719 35.2856 39.1125 35.1011 39.2531C34.9429 39.3761 34.7847 39.4815 34.6265 39.5958C34.2223 39.8858 33.8005 40.167 33.37 40.4306L31.8146 37.5923L23.783 23.2513H43.4754C43.449 23.8401 43.4051 24.42 43.3348 24.9912Z" fill="black"/>
</svg>
